# xmcd
#
# Track frame offsets:
#	150
#	14866
#	29423
#	44922
#	61926
#	78892
#	97237
#	114524
#	131532
#	142213
#	157846
#	173685
#	191639
#	203281
#	218116
#	232089
#	248974
#	263200
#	281173
#	296344
#
# Disc length: 4129
#
# Revision: 20
# Processed by: cddbd v1.5.1PL0 Copyright (c) Steve Scherf et al.
# Submitted via: audiograbber 1.83.01
# Normalized: r19:DSETVAR1,TDELIM( - )
#
DISCID=30101f14
DTITLE=Various Artist - Euro Express 582 ( September 10.04. Cd2 )
DYEAR=2004
DGENRE=Pop
TTITLE0=Ashlee Simpson - Pieces Of Me
TTITLE1=Benassi Bros. feat Paul French - Memory Of Love - Radio Edit
TTITLE2=Bjork - Oceania
TTITLE3=Brian McFadden - Real To Me
TTITLE4=Christina Aguilera - Hello ( Follow Your Own Star )
TTITLE5=Diam's feat China - Evasion - Radio Version
TTITLE6=Diam's feat China - Incassables - Radio Version
TTITLE7=Estelle - Free
TTITLE8=Fatboy Slim - Slash Dot Dash
TTITLE9=Girls Aloud - Love Machine
TTITLE10=Kareen Antonn and Bonnie Tyler - Si Tout S'arrete ( It's A Heartache )
TTITLE11=Mc Solaar - La Vie Est Belle
TTITLE12=PJ Harvey - Shame
TTITLE13=Ringleader - Enough Is Enough - Radio Edit
TTITLE14=Skinnyman - No Big Ting
TTITLE15=Slai - Flamme - Radio Version
TTITLE16=Sunship - Almighty Father
TTITLE17=T-Star feat T.Faction G, B-Live and Skandalous Unlimited - Bounds
TTITLE18=Thirteen Senses - Into The Fire
TTITLE19=Wiley - Pies
EXTD=
EXTT0=
EXTT1=
EXTT2=
EXTT3=
EXTT4=
EXTT5=
EXTT6=
EXTT7=
EXTT8=
EXTT9=
EXTT10=
EXTT11=
EXTT12=
EXTT13=
EXTT14=
EXTT15=
EXTT16=
EXTT17=
EXTT18=
EXTT19=
PLAYORDER=
